<svg fill="#000" xmlns="http://www.w3.org/2000/svg" xmlns:xlink="http://www.w3.org/1999/xlink" xml:space="preserve" version="1.1" style="shape-rendering:geometricPrecision;text-rendering:geometricPrecision;image-rendering:optimizeQuality;" viewBox="0 0 1000 1000" x="0px" y="0px" fill-rule="evenodd" clip-rule="evenodd"><g transform="translate(75 100)"><path full="#fff" class="fil0" d="M164 131c-48,-13 -82,-88 -38,-119 44,-32 104,24 101,74 93,125 149,200 196,264 48,-64 103,-139 197,-264 -4,-50 57,-106 101,-74 44,31 10,106 -38,119 -58,83 -130,187 -205,294 58,78 123,166 254,342 37,51 -46,107 -81,58 -65,-89 -146,-204 -228,-322 -82,118 -163,233 -227,322 -36,49 -118,-7 -81,-58 131,-176 196,-264 253,-342 -74,-107 -146,-211 -204,-294zm241 346l-19 -27 -248 334c-13,19 21,43 34,25l233 -332zm36 -102l18 24 201 -286c2,-5 6,-8 12,-9 28,-5 54,-53 32,-69 -23,-16 -60,24 -55,53 1,4 -1,9 -4,12l-204 275zm233 434c14,18 48,-6 34,-25l-506 -684c-3,-3 -5,-8 -4,-12 5,-29 -32,-69 -55,-53 -22,16 3,64 32,69 5,1 10,4 12,9l487 696z"></path></g></svg>
